<?xml version="1.0" encoding="UTF-8" standalone="no"?>
<svg
   xmlns:dc="http://purl.org/dc/elements/1.1/"
   xmlns:cc="http://creativecommons.org/ns#"
   xmlns:rdf="http://www.w3.org/1999/02/22-rdf-syntax-ns#"
   xmlns:svg="http://www.w3.org/2000/svg"
   xmlns="http://www.w3.org/2000/svg"
   xmlns:sodipodi="http://sodipodi.sourceforge.net/DTD/sodipodi-0.dtd"
   xmlns:inkscape="http://www.inkscape.org/namespaces/inkscape"
   id="svg11119"
   version="1.1"
   viewBox="0 0 11.493058 11.209466"
   height="42.366486"
   width="43.438332"
   sodipodi:docname="github.svg"
   inkscape:version="0.92.3 (2405546, 2018-03-11)">
  <sodipodi:namedview
     pagecolor="#ffffff"
     bordercolor="#666666"
     borderopacity="1"
     objecttolerance="10"
     gridtolerance="10"
     guidetolerance="10"
     inkscape:pageopacity="0"
     inkscape:pageshadow="2"
     inkscape:window-width="2560"
     inkscape:window-height="1372"
     id="namedview7"
     showgrid="false"
     inkscape:zoom="5.5704408"
     inkscape:cx="21.719166"
     inkscape:cy="21.183243"
     inkscape:window-x="0"
     inkscape:window-y="32"
     inkscape:window-maximized="1"
     inkscape:current-layer="layer1" />
  <defs
     id="defs11113" />
  <metadata
     id="metadata11116">
    <rdf:RDF>
      <cc:Work
         rdf:about="">
        <dc:format>image/svg+xml</dc:format>
        <dc:type
           rdf:resource="http://purl.org/dc/dcmitype/StillImage" />
        <dc:title></dc:title>
      </cc:Work>
    </rdf:RDF>
  </metadata>
  <g
     transform="translate(-86.479617,-95.6036)"
     id="layer1"
     style="fill:#ffffff;fill-opacity:0.97517729">
    <path
       d="m 92.225661,95.6036 c -3.172883,0 -5.746044,2.572808 -5.746044,5.74675 0,2.53894 1.646414,4.69265 3.929944,5.45253 0.287514,0.0529 0.392289,-0.12453 0.392289,-0.27693 0,-0.13652 -0.0049,-0.49777 -0.0078,-0.97719 -1.598436,0.34713 -1.935692,-0.77047 -1.935692,-0.77047 -0.261408,-0.66393 -0.638174,-0.84067 -0.638174,-0.84067 -0.521759,-0.3563 0.03951,-0.34925 0.03951,-0.34925 0.576791,0.0406 0.88018,0.59232 0.88018,0.59232 0.512586,0.87806 1.345142,0.62441 1.67252,0.4773 0.05221,-0.37112 0.20073,-0.62441 0.364772,-0.76799 -1.275997,-0.14499 -2.617611,-0.63818 -2.617611,-2.84022 0,-0.62724 0.224014,-1.140527 0.591608,-1.541988 -0.05927,-0.145345 -0.256469,-0.729898 0.05644,-1.520825 0,0 0.482247,-0.154517 1.580092,0.589138 0.458258,-0.127705 0.950031,-0.191205 1.438628,-0.193675 0.488244,0.0025 0.979664,0.06597 1.438628,0.193675 1.097138,-0.743655 1.57868,-0.589138 1.57868,-0.589138 0.313619,0.790927 0.116417,1.37548 0.0575,1.520825 0.3683,0.401461 0.59055,0.914748 0.59055,1.541988 0,2.20769 -1.34373,2.69346 -2.623608,2.83563 0.206022,0.17745 0.389819,0.52811 0.389819,1.06398 0,0.76835 -0.0071,1.38818 -0.0071,1.57656 0,0.15381 0.103717,0.33267 0.395112,0.27658 2.281769,-0.76165 3.926772,-2.91394 3.926772,-5.45218 0,-3.173942 -2.573161,-5.74675 -5.747103,-5.74675"
       style="fill:#ffffff;fill-opacity:1;fill-rule:evenodd;stroke:none;stroke-width:0.03527778;opacity:1"
       id="path10921" />
  </g>
</svg>
